<?xml version="1.0" encoding="UTF-8"?>
<svg version="1.1" xmlns="http://www.w3.org/2000/svg" width="979" height="987">
<path d="M0 0 C6.15814374 4.66663003 12.0123964 9.66179919 17.72265625 14.86328125 C18.46902344 15.53746094 19.21539063 16.21164063 19.984375 16.90625 C35.85726728 32.00642542 46.8521073 51.2296416 53.72265625 71.86328125 C53.97950195 72.58692871 54.23634766 73.31057617 54.50097656 74.05615234 C61.98010226 95.62464513 61.4188994 123.14383617 54.72265625 144.86328125 C54.46532715 145.73259277 54.20799805 146.6019043 53.94287109 147.49755859 C46.55838457 172.16009969 33.0519897 194.96415011 10.13671875 208.1171875 C-0.26336012 213.43622097 -10.71229498 216.91238103 -22.27734375 218.86328125 C-23.79843716 219.12354865 -23.79843716 219.12354865 -25.35025972 219.38907397 C-30.03747515 219.95506942 -34.61348542 220.00314439 -39.32943821 219.99356651 C-40.33114962 219.99550994 -41.33286102 219.99745337 -42.36492732 219.99945569 C-45.73048517 220.00478125 -49.09600202 220.00301284 -52.46156311 220.00131226 C-54.89538428 220.00373033 -57.32920505 220.00659261 -59.76302522 220.00986159 C-65.0594314 220.01599774 -70.35582627 220.01907789 -75.65223503 220.01948738 C-83.52853729 220.02013262 -91.40482748 220.02652858 -99.28112563 220.03423418 C-111.72138954 220.04630875 -124.16165291 220.05497146 -136.60192099 220.06127232 C-156.35480709 220.07131009 -176.10767595 220.09056623 -195.8605517 220.11281471 C-203.46254544 220.12134495 -211.06453948 220.12961137 -218.66653347 220.13791847 C-219.93342844 220.13930599 -219.93342844 220.13930599 -221.22591725 220.14072153 C-241.33021587 220.16271162 -261.4345164 220.18250251 -281.53881836 220.20117188 C-282.41845956 220.20199155 -283.29810076 220.20281123 -284.20439776 220.20365575 C-304.72256717 220.22273611 -325.24073647 220.23969873 -345.75891113 220.25201416 C-346.64108578 220.25254383 -347.52326043 220.2530735 -348.43216764 220.25361921 C-355.54284209 220.2578708 -362.65351659 220.26204711 -369.7641911 220.26620401 C-399.09321311 220.28340865 -428.42221153 220.310629 -457.75121328 220.34936439 C-461.8948307 220.35482602 -466.03844827 220.36015903 -470.18206596 220.36540604 C-470.99753847 220.36644042 -471.81301098 220.3674748 -472.65319478 220.36854052 C-485.76720358 220.38485254 -498.88119585 220.39039345 -511.99521384 220.3917037 C-525.18058525 220.39320955 -538.36591183 220.40538608 -551.55126346 220.42846011 C-559.38017725 220.44182159 -567.20899305 220.44686958 -575.03791569 220.43991375 C-580.89038352 220.43563086 -586.74275436 220.44698491 -592.59520035 220.46430404 C-594.95793895 220.46887295 -597.32069389 220.46841823 -599.68342913 220.46235566 C-619.59651358 220.41583166 -639.31576706 221.32439183 -654.6015625 235.98828125 C-664.22612925 246.75702727 -666.43024461 258.2333707 -666.41778564 272.29873657 C-666.42075677 273.34895284 -666.42372789 274.39916911 -666.42678905 275.48121011 C-666.43545996 279.00001404 -666.43698294 282.51878389 -666.43847656 286.03759766 C-666.44310589 288.56085279 -666.44813071 291.08410722 -666.45352173 293.60736084 C-666.46663714 300.4629648 -666.47312609 307.31855756 -666.47753239 314.17417192 C-666.48029913 318.4588626 -666.48453729 322.74355104 -666.48903656 327.0282402 C-666.50122647 338.90262269 -666.51152607 350.77700338 -666.51491165 362.65139198 C-666.51513122 363.41080622 -666.51535078 364.17022045 -666.515577 364.95264723 C-666.51579528 365.7138297 -666.51601356 366.47501217 -666.51623845 367.25926077 C-666.51668191 368.80158401 -666.51712847 370.34390724 -666.51757812 371.88623047 C-666.51779955 372.65126835 -666.51802098 373.41630622 -666.51824912 374.20452707 C-666.52219458 386.59239727 -666.53964211 398.98020856 -666.56293765 411.36805601 C-666.58668841 424.10128598 -666.59911521 436.83448643 -666.60027957 449.56773889 C-666.60119428 456.71097994 -666.606895 463.85414422 -666.62509918 470.99736404 C-666.64217092 477.71968372 -666.64372503 484.44183328 -666.63496017 491.16417694 C-666.63419092 493.62635818 -666.63851772 496.08854731 -666.64841843 498.55070877 C-666.66117812 501.9226188 -666.65523891 505.29401692 -666.64483643 508.66592407 C-666.65692103 510.11315084 -666.65692103 510.11315084 -666.66924977 511.58961451 C-666.57621445 524.56274991 -662.96673007 535.8764548 -654.15234375 545.55078125 C-643.56209484 555.46156729 -630.27741016 559.97202886 -616.01099586 560.00194645 C-615.2983326 560.00478867 -614.58566933 560.00763089 -613.85141021 560.01055923 C-611.4632351 560.01888157 -609.07510865 560.0201725 -606.68692017 560.02149963 C-604.95757412 560.02606666 -603.22822917 560.03106689 -601.49888551 560.0364632 C-596.74658617 560.05003769 -591.99429397 560.05746068 -587.24198031 560.06388986 C-582.117285 560.07189682 -576.99260454 560.08559359 -571.86791992 560.09860229 C-562.9889739 560.12036083 -554.11002638 560.13850761 -545.23106766 560.15420723 C-532.39355394 560.17691151 -519.55605668 560.20505358 -506.71855693 560.23452651 C-485.89099183 560.28219556 -465.06342001 560.32546161 -444.23583984 560.3659668 C-424.0027616 560.40532521 -403.76968934 560.44675228 -383.53662109 560.4909668 C-382.28963328 560.49369107 -381.04264547 560.49641534 -379.75787015 560.49922217 C-373.5021521 560.5129017 -367.24643414 560.52662196 -360.99071622 560.54036248 C-309.08627046 560.65431647 -257.18181271 560.76031853 -205.27734375 560.86328125 C-205.27734375 586.27328125 -205.27734375 611.68328125 -205.27734375 637.86328125 C-250.30830669 637.93095072 -295.33926981 637.99547462 -340.37026978 638.03265381 C-341.37098023 638.03348215 -341.37098023 638.03348215 -342.39190706 638.03432723 C-356.8928528 638.04630061 -371.39379909 638.05738109 -385.89474621 638.06754257 C-393.00665384 638.07253164 -400.11856133 638.07771789 -407.23046875 638.08300781 C-407.93816537 638.08353085 -408.64586198 638.08405388 -409.37500395 638.08459277 C-432.28756859 638.10161905 -455.20009361 638.13164997 -478.11263427 638.16847013 C-501.67059409 638.20625845 -525.228532 638.23083644 -548.78652161 638.23894121 C-563.95945626 638.24418911 -579.13228276 638.26091396 -594.30518176 638.29494712 C-604.25845701 638.31613189 -614.21167364 638.32247231 -624.16496979 638.31728676 C-629.9028327 638.31473118 -635.64049711 638.31857926 -641.37832451 638.34010315 C-646.64197401 638.35970309 -651.90529327 638.36046473 -657.16895862 638.34687683 C-659.06294733 638.3451998 -660.95695745 638.35015932 -662.85090463 638.36281398 C-690.90856398 638.53922851 -715.22085764 630.27952118 -735.83984375 610.73828125 C-752.43257454 593.72783136 -756.6044196 573.15212747 -756.53804016 550.1582489 C-756.54106801 548.71887494 -756.54496064 547.27950258 -756.54963273 545.84013301 C-756.55983996 541.92121687 -756.55774966 538.00239296 -756.55345213 534.08346951 C-756.55097157 529.84271538 -756.56001549 525.60198269 -756.56748962 521.36123657 C-756.5802019 513.0671081 -756.58203466 504.77301206 -756.57968936 496.47887548 C-756.57790214 489.73303769 -756.57966449 482.98720969 -756.5839138 476.24137306 C-756.58450899 475.27915292 -756.58510418 474.31693279 -756.58571741 473.32555446 C-756.58692923 471.37043311 -756.58814337 469.41531175 -756.58935978 467.46019039 C-756.60022196 449.14838167 -756.5980791 430.83659138 -756.59197494 412.52478162 C-756.58680705 395.79779015 -756.59806021 379.07085693 -756.61707316 362.34387698 C-756.63647714 345.14007387 -756.64470306 327.93629828 -756.6409499 310.73248416 C-756.63904173 301.08530021 -756.64148788 291.43816582 -756.65566444 281.79099083 C-756.66761189 273.57809244 -756.66894555 265.36527415 -756.65687428 257.15237459 C-756.65100912 252.96807444 -756.64982019 248.78392054 -756.66187668 244.59963036 C-756.67281552 240.75835761 -756.66953848 236.91735182 -756.65561499 233.07609115 C-756.65176024 231.05151925 -756.66244935 229.02693512 -756.67391187 227.00239199 C-756.53911084 203.816254 -749.35645104 183.7278855 -732.75830078 167.27099609 C-715.35028225 150.72390825 -691.57780572 142.66699019 -667.80170155 142.7357893 C-666.98256943 142.73414547 -666.16343731 142.73250163 -665.31948301 142.73080799 C-662.58103871 142.72650419 -659.84264793 142.72926466 -657.10420227 142.73197937 C-655.11840864 142.7302764 -653.13261535 142.72812634 -651.14682263 142.72556812 C-646.83244729 142.72097683 -642.51808629 142.71954914 -638.20370865 142.72053337 C-631.18345324 142.72212793 -624.16321203 142.71692018 -617.14295959 142.71090698 C-606.95011207 142.70279764 -596.75726704 142.69785142 -586.56441689 142.69461632 C-571.1327942 142.6893492 -555.7011915 142.67384894 -540.26957924 142.6556749 C-536.84218365 142.65165369 -533.41478795 142.64773269 -529.98739225 142.64380854 C-529.30419237 142.64302589 -528.62099249 142.64224323 -527.91708959 142.64143686 C-526.53266982 142.63985129 -525.14825005 142.63826647 -523.76383028 142.63668237 C-522.37430725 142.63509109 -520.98478423 142.63349684 -519.59526122 142.63189964 C-503.21528317 142.61307671 -486.83530364 142.59598698 -470.45532227 142.58032227 C-469.73877105 142.57963335 -469.02221983 142.57894443 -468.28395493 142.57823463 C-445.05041515 142.5559745 -421.8168818 142.54413421 -398.58333308 142.53665571 C-374.68309942 142.52888653 -350.78290958 142.50781204 -326.88270216 142.4711131 C-323.50545733 142.46593975 -320.12821227 142.46093236 -316.75096703 142.45603371 C-316.086337 142.45506675 -315.42170697 142.45409979 -314.73693663 142.45310353 C-303.39575183 142.4370474 -292.05462099 142.43772471 -280.71342739 142.44249818 C-270.62988804 142.44567404 -260.54643069 142.43433417 -250.46291671 142.41160377 C-244.64665175 142.39894383 -238.83056947 142.39275691 -233.01429749 142.40402031 C-227.68520324 142.41420757 -222.35646326 142.40590035 -217.02741077 142.38315735 C-215.10415278 142.37817383 -213.18086283 142.37987029 -211.25762049 142.38909002 C-186.21403844 142.49966376 -170.83977609 133.17415765 -153.22265625 115.9140625 C-133.64444601 95.58711051 -121.85822209 66.99452037 -121.90234375 38.80078125 C-121.90395508 37.71313477 -121.90556641 36.62548828 -121.90722656 35.50488281 C-122.09038646 23.3049968 -124.74337146 12.45338254 -128.52734375 0.92578125 C-130.5660122 -5.5232337 -131.96362252 -11.93896097 -129.359375 -18.421875 C-125.89131839 -24.42643903 -121.02778158 -29.1115874 -114.27734375 -31.13671875 C-76.95671532 -38.43047923 -29.82149263 -21.82948593 0 0 Z " fill="#B02CF6" transform="translate(920.27734375,32.13671875)"/>
<path d="M0 0 C45.14041421 -0.06766511 90.28082879 -0.13218925 135.42127991 -0.16937256 C136.08996801 -0.16992479 136.75865611 -0.17047702 137.44760748 -0.17104598 C151.98195436 -0.18301917 166.5163018 -0.19409967 181.05065006 -0.20426132 C188.17886774 -0.20925042 195.30708527 -0.21443667 202.43530273 -0.21972656 C203.49928606 -0.22051112 203.49928606 -0.22051112 204.584764 -0.22131152 C227.55282017 -0.23833991 250.52083683 -0.26837241 273.48886909 -0.30518888 C297.10251975 -0.34297127 320.71614858 -0.36755382 344.32982895 -0.37565996 C359.53955041 -0.38090906 374.74916401 -0.39764163 389.95884991 -0.43166587 C399.93501156 -0.45284308 409.91111472 -0.45919276 419.88729721 -0.45400551 C425.63921287 -0.45144876 431.39093054 -0.45531152 437.14281082 -0.4768219 C442.41812716 -0.49640513 447.69311389 -0.49719408 452.96844596 -0.48359558 C454.86780041 -0.48191695 456.76717612 -0.48689075 458.66648924 -0.49953273 C485.25697848 -0.66609991 509.730479 7.13297707 529.140625 25.984375 C545.27119614 42.46044699 550.49850162 62.78146979 550.38095093 85.14208984 C550.38441774 86.60452814 550.3891891 88.06696382 550.39513266 89.52939415 C550.40753197 93.50277472 550.40152346 97.47593614 550.39217401 101.44931698 C550.38533791 105.75205324 550.39588717 110.05475391 550.40411377 114.35748291 C550.41740499 122.76866303 550.41459401 131.17976253 550.40587585 139.59094572 C550.39908148 146.43114091 550.39819014 153.27131362 550.4014473 160.11151123 C550.401907 161.08762592 550.40236669 162.0637406 550.40284032 163.06943452 C550.40379957 165.05282355 550.40477221 167.03621257 550.4057581 169.01960158 C550.41429849 187.58749187 550.40449911 206.15533761 550.388357 224.72322059 C550.37495505 240.63125789 550.37728353 256.5392295 550.39111328 272.44726562 C550.40719301 290.95187523 550.41347464 309.45644586 550.40427649 327.96106148 C550.40332091 329.93687057 550.4023778 331.91267967 550.4014473 333.88848877 C550.40098447 334.86044831 550.40052164 335.83240784 550.40004479 336.8338207 C550.39746208 343.6602805 550.40181035 350.48671544 550.40888596 357.31317139 C550.41732779 365.64024018 550.41496465 373.96722422 550.39904372 382.29428339 C550.39119698 386.53720161 550.3880075 390.77997886 550.39799118 395.02289581 C550.40701382 398.91647007 550.40188255 402.80977436 550.38605852 406.70332456 C550.38274242 408.10218901 550.38433208 409.50107689 550.39168589 410.89992595 C550.50236045 433.72638706 543.97016642 451.78779757 528.375 468.62109375 C507.85144409 489.17840551 481.1653524 495.36502048 453.01879418 495.39476866 C451.1932026 495.38737982 449.36761211 495.37971771 447.54202271 495.37181091 C445.55085861 495.37439239 443.55969588 495.37829968 441.56853664 495.3834005 C436.15234754 495.39358093 430.73632368 495.38543469 425.32014275 495.37410367 C419.45786172 495.3651913 413.59560265 495.37377087 407.73332214 495.38031006 C397.59194588 495.38943594 387.45061494 495.38816143 377.30923843 495.38012505 C362.6326395 495.36886082 347.9560935 495.37789717 333.27950345 495.39268685 C326.42693621 495.39957647 319.57436814 495.40551979 312.72179985 495.41126347 C312.03604553 495.41184021 311.3502912 495.41241694 310.64375645 495.41301116 C294.35430288 495.4265121 278.06484911 495.43111911 261.77539062 495.43383789 C261.063446 495.43396104 260.35150137 495.43408419 259.61798266 495.43421107 C243.72124305 495.43692724 227.82450387 495.4378394 211.92776407 495.43678741 C205.43263699 495.43636254 198.9375099 495.43605506 192.44238281 495.43579102 C191.72992074 495.43575824 191.01745867 495.43572546 190.28340683 495.43569169 C174.00807926 495.43500561 157.73276335 495.43762309 141.45744133 495.4519434 C140.77295183 495.45254507 140.08846233 495.45314674 139.38323072 495.45376664 C132.54884708 495.45986498 125.71446441 495.46663247 118.88008241 495.47435217 C103.5654516 495.49153564 88.25092744 495.49539945 72.93629067 495.47949005 C62.90986635 495.4700233 52.8835135 495.47478311 42.85709758 495.49070387 C37.07517769 495.49939519 31.29344775 495.50154512 25.51153755 495.48617744 C20.21435079 495.47221035 14.91750741 495.47674306 9.62033914 495.49569846 C7.70884493 495.49929819 5.79732326 495.4961982 3.88585533 495.48554879 C-11.49711981 495.40564894 -23.64672784 496.94328818 -36 507 C-36.52126465 507.42265137 -37.0425293 507.84530273 -37.57958984 508.28076172 C-41.45738202 511.4426538 -45.24406347 514.69437997 -49 518 C-49.65871094 518.57234375 -50.31742188 519.1446875 -50.99609375 519.734375 C-70.47878467 537.86215456 -83.14891842 566.89254711 -84.28125 593.26171875 C-84.64094014 607.69193589 -82.88180511 620.54371077 -78.3125 634.25 C-75.76438028 641.94569491 -73.74234548 650.25130033 -77.5625 657.875 C-82.02385836 663.59469021 -85.96265289 666.97546425 -93 669 C-97.65829519 669.43855785 -102.32287582 669.38111313 -107 669.375 C-107.99826309 669.37468277 -107.99826309 669.37468277 -109.01669312 669.37435913 C-121.3361061 669.33541162 -133.03109624 667.96097394 -145 665 C-145.73395996 664.82339844 -146.46791992 664.64679687 -147.22412109 664.46484375 C-176.43496932 657.23741738 -202.42923894 642.83606211 -224 622 C-224.92554688 621.13761719 -225.85109375 620.27523437 -226.8046875 619.38671875 C-248.79818784 598.35893868 -264.30004404 567.45581504 -265.43359375 536.7734375 C-265.45732144 534.30740547 -265.45807998 531.84106031 -265.4375 529.375 C-265.42847656 528.06321777 -265.41945313 526.75143555 -265.41015625 525.39990234 C-265.21759675 514.50558141 -264.00277418 504.46263479 -261 494 C-260.72623535 493.03336426 -260.4524707 492.06672852 -260.17041016 491.07080078 C-254.39545558 471.21059116 -246.67254823 456.51836213 -232 442 C-231.18789062 441.16597656 -230.37578125 440.33195312 -229.5390625 439.47265625 C-206.49709543 417.08137596 -172.75809661 416.83335868 -142.71513367 416.89320374 C-140.34355696 416.89420076 -137.97198004 416.89474958 -135.60040313 416.89489073 C-129.78435597 416.89635982 -123.96832669 416.90245885 -118.15228522 416.91051122 C-111.17994155 416.91988577 -104.20759812 416.92333305 -97.23524931 416.92650168 C-84.36579477 416.93247391 -71.49634743 416.94282523 -58.62689781 416.95540047 C-40.23369868 416.9732675 -21.84050045 416.98264399 -3.4472946 416.99029111 C3.94093783 416.99340002 11.32917015 416.99678223 18.71740246 417.00016689 C19.53815147 417.00054166 20.35890048 417.00091643 21.20452068 417.00130256 C40.72578524 417.01026834 60.24704796 417.02193011 79.76831055 417.03442383 C81.04895787 417.03524043 81.04895787 417.03524043 82.35547686 417.03607354 C102.27397319 417.04879741 122.19246812 417.06280887 142.11096191 417.07904053 C142.96767925 417.07973772 143.82439658 417.0804349 144.70707505 417.08115322 C149.0271861 417.08467092 153.34729715 417.08819774 157.66740819 417.0917251 C158.94816359 417.09277028 158.94816359 417.09277028 160.25479284 417.09383656 C161.97817849 417.09524331 163.70156414 417.09665158 165.4249498 417.09806137 C193.91823592 417.12132752 222.41151969 417.13777174 250.904814 417.14673797 C254.93104635 417.14801446 258.95727867 417.14938322 262.98351097 417.15081596 C263.77583922 417.15109731 264.56816748 417.15137866 265.38450568 417.15166853 C278.11656433 417.15641826 290.84860564 417.16857077 303.58065575 417.18370286 C316.3821979 417.19880149 329.18372829 417.20678035 341.98527948 417.20748956 C348.91580556 417.2080843 355.84629294 417.21189886 362.77680779 417.2249527 C369.12718017 417.23660444 375.47748676 417.2389358 381.82786729 417.23401051 C384.11913695 417.23385982 386.41040997 417.23707418 388.7016689 417.24408758 C420.64741763 417.34193241 420.64741763 417.34193241 448 402 C461.36450333 387.60227456 460.58336427 371.15887683 460.51757812 352.6796875 C460.52300465 350.11761071 460.53013027 347.55553704 460.53881836 344.99346924 C460.55510833 338.78176203 460.55280168 332.57030852 460.5411678 326.35859823 C460.5321002 321.30608634 460.53092378 316.25362855 460.53526306 311.20111084 C460.53618246 310.11866602 460.53618246 310.11866602 460.53712043 309.01435363 C460.53839945 307.54795407 460.53969631 306.08155452 460.5410108 304.61515498 C460.55239182 290.8944503 460.53934194 277.17385286 460.51780933 263.45316577 C460.49994058 251.70374956 460.50304539 239.95449148 460.52148438 228.20507812 C460.54293505 214.53038243 460.55129341 200.8557805 460.53903532 187.18107033 C460.53776125 185.72034329 460.53650376 184.25961623 460.53526306 182.79888916 C460.53464596 182.08035637 460.53402886 181.36182358 460.53339306 180.62151706 C460.52995271 175.58047967 460.53573996 170.53950222 460.54518127 165.49847412 C460.55763146 158.70211871 460.54865095 151.90610613 460.52560425 145.1097641 C460.52033556 142.62220502 460.5217992 140.13462073 460.53065491 137.64707184 C460.58618315 120.45871366 460.62206521 105.20308091 448 92 C437.38038569 83.06799881 425.83668785 77.89060556 411.84108257 77.8613348 C411.12788478 77.85849258 410.41468698 77.85565036 409.67987713 77.85272202 C407.28386211 77.84438293 404.88789549 77.84310742 402.49186707 77.84178162 C400.75925927 77.83721573 399.02665258 77.83221567 397.29404718 77.82681805 C392.52808691 77.81323056 387.76213377 77.8058168 382.9961592 77.79939139 C377.85849458 77.79139015 372.72084484 77.77769141 367.58319092 77.76467896 C358.68021802 77.74291231 349.77724363 77.7247685 340.87425804 77.70907402 C328.00197924 77.68637712 315.12971689 77.65823403 302.25745205 77.62875474 C281.37387178 77.58107664 260.49028479 77.53781303 239.60668945 77.49731445 C219.31827267 77.45796065 199.02986186 77.41653469 178.74145508 77.37231445 C177.49121755 77.36959018 176.24098002 77.36686591 174.9528565 77.36405908 C168.68088375 77.35037962 162.40891108 77.33665935 156.13693845 77.32291877 C104.09130402 77.20895055 52.04565761 77.1029532 0 77 C0 51.59 0 26.18 0 0 Z " fill="#FD5C44" transform="translate(265,317)"/>
<path d="M0 0 C1.64135674 0.00424484 1.64135674 0.00424484 3.31587219 0.00857544 C6.76929223 0.01966216 10.22244121 0.04474471 13.67578125 0.0703125 C16.03450143 0.08035719 18.39322573 0.08948042 20.75195312 0.09765625 C26.49748642 0.11956363 32.24286446 0.15292438 37.98828125 0.1953125 C37.98828125 0.5253125 37.98828125 0.8553125 37.98828125 1.1953125 C37.14007813 1.33066406 36.291875 1.46601563 35.41796875 1.60546875 C20.77278209 4.29310191 7.56083996 10.11825942 -1.32421875 22.5703125 C-7.22726086 31.98630631 -8.16179771 41.75114969 -8.15216064 52.63076782 C-8.15513177 53.68098409 -8.15810289 54.73120036 -8.16116405 55.81324136 C-8.16983496 59.33204529 -8.17135794 62.85081514 -8.17285156 66.36962891 C-8.17748089 68.89288404 -8.18250571 71.41613847 -8.18789673 73.93939209 C-8.20101214 80.79499605 -8.20750109 87.65058881 -8.21190739 94.50620317 C-8.21467413 98.79089385 -8.21891229 103.07558229 -8.22341156 107.36027145 C-8.23560147 119.23465394 -8.24590107 131.10903463 -8.24928665 142.98342323 C-8.24950622 143.74283747 -8.24972578 144.5022517 -8.249952 145.28467848 C-8.25017028 146.04586095 -8.25038856 146.80704342 -8.25061345 147.59129202 C-8.25105691 149.13361526 -8.25150347 150.67593849 -8.25195312 152.21826172 C-8.25217455 152.9832996 -8.25239598 153.74833747 -8.25262412 154.53655832 C-8.25656958 166.92442852 -8.27401711 179.31223981 -8.29731265 191.70008726 C-8.32106341 204.43331723 -8.33349021 217.16651768 -8.33465457 229.89977014 C-8.33556928 237.04301119 -8.34127 244.18617547 -8.35947418 251.32939529 C-8.37654592 258.05171497 -8.37810003 264.77386453 -8.36933517 271.49620819 C-8.36856592 273.95838943 -8.37289272 276.42057856 -8.38279343 278.88274002 C-8.39555312 282.25465005 -8.38961391 285.62604817 -8.37921143 288.99795532 C-8.38726783 289.96277317 -8.39532423 290.92759101 -8.40362477 291.92164576 C-8.31058945 304.89478116 -4.70110507 316.20848605 4.11328125 325.8828125 C14.70353016 335.79359854 27.98821484 340.30406011 42.25462914 340.3339777 C43.32362403 340.33824103 43.32362403 340.33824103 44.41421479 340.34259048 C46.8023899 340.35091282 49.19051635 340.35220375 51.57870483 340.35353088 C53.30805088 340.35809791 55.03739583 340.36309814 56.76673949 340.36849445 C61.51903883 340.38206894 66.27133103 340.38949193 71.02364469 340.39592111 C76.14834 340.40392807 81.27302046 340.41762484 86.39770508 340.43063354 C95.2766511 340.45239208 104.15559862 340.47053886 113.03455734 340.48623848 C125.87207106 340.50894276 138.70956832 340.53708483 151.54706807 340.56655776 C172.37463317 340.61422681 193.20220499 340.65749286 214.02978516 340.69799805 C234.2628634 340.73735646 254.49593566 340.77878353 274.72900391 340.82299805 C275.97599172 340.82572232 277.22297953 340.82844659 278.50775485 340.83125342 C284.7634729 340.84493295 291.01919086 340.85865321 297.27490878 340.87239373 C349.17935454 340.98634772 401.08381229 341.09234978 452.98828125 341.1953125 C452.98828125 366.6053125 452.98828125 392.0153125 452.98828125 418.1953125 C407.95731831 418.26298197 362.92635519 418.32750587 317.89535522 418.36468506 C316.89464477 418.3655134 316.89464477 418.3655134 315.87371794 418.36635848 C301.3727722 418.37833186 286.87182591 418.38941234 272.37087879 418.39957382 C265.25897116 418.40456289 258.14706367 418.40974914 251.03515625 418.41503906 C250.32745963 418.4155621 249.61976302 418.41608513 248.89062105 418.41662402 C225.97805641 418.4336503 203.06553139 418.46368122 180.15299073 418.50050138 C156.59503091 418.5382897 133.037093 418.56286769 109.47910339 418.57097246 C94.30616874 418.57622036 79.13334224 418.59294521 63.96044324 418.62697837 C54.00716799 418.64816314 44.05395136 418.65450356 34.10065521 418.64931801 C28.3627923 418.64676243 22.62512789 418.65061051 16.88730049 418.6721344 C11.62365099 418.69173434 6.36033173 418.69249598 1.09666638 418.67890808 C-0.79732233 418.67723105 -2.69133245 418.68219057 -4.58527963 418.69484523 C-32.64293898 418.87125976 -56.95523264 410.61155243 -77.57421875 391.0703125 C-97.37262251 370.77348739 -98.31654063 346.69659817 -98.28637695 320.04614258 C-98.29072944 317.50203299 -98.29591437 314.95792471 -98.30186462 312.41381836 C-98.31382659 306.24461627 -98.31641278 300.07547426 -98.31406436 293.90626285 C-98.31227391 288.88526965 -98.31404634 283.86428959 -98.3182888 278.84329796 C-98.31888399 278.12588706 -98.31947918 277.40847615 -98.32009241 276.66932553 C-98.32130429 275.21139163 -98.32251843 273.75345774 -98.32373478 272.29552384 C-98.33458766 258.65148124 -98.33245881 245.00746341 -98.32634994 231.36341944 C-98.3211855 218.91861157 -98.33242773 206.47388209 -98.35144816 194.02908973 C-98.37088546 181.21198321 -98.37907209 168.39491367 -98.3753249 155.57779235 C-98.37342142 148.3975823 -98.37581633 141.2174389 -98.39003944 134.03724098 C-98.40329156 127.27950768 -98.40061373 120.52195542 -98.38762856 113.76421356 C-98.38527687 111.29648725 -98.38794638 108.82874975 -98.39625168 106.3610363 C-98.49153821 75.8260536 -94.00521311 52.01562996 -72.01171875 29.1953125 C-71.3053125 28.4425 -70.59890625 27.6896875 -69.87109375 26.9140625 C-68.01171875 25.1953125 -68.01171875 25.1953125 -66.01171875 25.1953125 C-66.01171875 24.5353125 -66.01171875 23.8753125 -66.01171875 23.1953125 C-63.85838731 21.52457165 -61.72107058 20.00325799 -59.44921875 18.5078125 C-58.77391113 18.06228027 -58.09860352 17.61674805 -57.40283203 17.15771484 C-39.99067442 5.93852031 -20.75896919 -0.20665721 0 0 Z " fill="#A028F6" transform="translate(262.01171875,251.8046875)"/>
<path d="M0 0 C45.14041421 -0.06766511 90.28082879 -0.13218925 135.42127991 -0.16937256 C136.08996801 -0.16992479 136.75865611 -0.17047702 137.44760748 -0.17104598 C151.98195436 -0.18301917 166.5163018 -0.19409967 181.05065006 -0.20426132 C188.17886774 -0.20925042 195.30708527 -0.21443667 202.43530273 -0.21972656 C203.49928606 -0.22051112 203.49928606 -0.22051112 204.584764 -0.22131152 C227.55282017 -0.23833991 250.52083683 -0.26837241 273.48886909 -0.30518888 C297.10251975 -0.34297127 320.71614858 -0.36755382 344.32982895 -0.37565996 C359.53955041 -0.38090906 374.74916401 -0.39764163 389.95884991 -0.43166587 C399.93501156 -0.45284308 409.91111472 -0.45919276 419.88729721 -0.45400551 C425.63921287 -0.45144876 431.39093054 -0.45531152 437.14281082 -0.4768219 C442.41812716 -0.49640513 447.69311389 -0.49719408 452.96844596 -0.48359558 C454.86780041 -0.48191695 456.76717612 -0.48689075 458.66648924 -0.49953273 C485.25697848 -0.66609991 509.730479 7.13297707 529.140625 25.984375 C549.04635847 46.31646956 550.45634809 69.99098001 550.38818359 96.72827148 C550.39225427 99.41698764 550.39749152 102.10567905 550.40411377 104.79438782 C550.41737571 111.30622318 550.4146082 117.81795418 550.40587585 124.32979345 C550.39907385 129.62304439 550.39819338 134.91626627 550.4014473 140.20952034 C550.401907 140.96562719 550.40236669 141.72173404 550.40284032 142.50075321 C550.40379958 144.03714236 550.40477222 145.5735315 550.4057581 147.10992063 C550.41428881 161.47617653 550.40451227 175.84237477 550.388357 190.20862121 C550.37493681 202.52411934 550.37730038 214.83953267 550.39111328 227.1550293 C550.40717727 241.48413949 550.41348508 255.81319941 550.40427649 270.14231735 C550.4033209 271.67060823 550.40237779 273.19889912 550.4014473 274.72719002 C550.40098447 275.47900572 550.40052164 276.23082142 550.40004479 277.00541941 C550.39745878 282.29327715 550.40181709 287.58110284 550.40888596 292.86895561 C550.41730942 299.31108104 550.41500227 305.75309683 550.39904372 312.19520973 C550.39117526 315.47933397 550.38966808 318.76323841 550.39799118 322.0473671 C550.40618956 325.61069393 550.39590514 329.17350703 550.38095093 332.73680115 C550.39098918 334.28567911 550.39098918 334.28567911 550.40123022 335.86584753 C550.35153411 341.97128731 549.47293387 346.4106102 547 352 C546.56300781 353.20140625 546.12601563 354.4028125 545.67578125 355.640625 C540.77318801 368.62055668 533.76144266 379.07477475 524 389 C523.25234375 389.76054688 522.5046875 390.52109375 521.734375 391.3046875 C491.22880702 420.49710189 449.33307337 419.39567434 410 419 C410 418.34 410 417.68 410 417 C410.94359375 416.91363281 411.8871875 416.82726562 412.859375 416.73828125 C427.46795683 415.13955091 440.05943781 410.5544544 450.32421875 399.49609375 C461.46807725 385.34483535 460.57864752 369.83395233 460.51757812 352.6796875 C460.52300465 350.11761071 460.53013027 347.55553704 460.53881836 344.99346924 C460.55510833 338.78176203 460.55280168 332.57030852 460.5411678 326.35859823 C460.5321002 321.30608634 460.53092378 316.25362855 460.53526306 311.20111084 C460.53618246 310.11866602 460.53618246 310.11866602 460.53712043 309.01435363 C460.53839945 307.54795407 460.53969631 306.08155452 460.5410108 304.61515498 C460.55239182 290.8944503 460.53934194 277.17385286 460.51780933 263.45316577 C460.49994058 251.70374956 460.50304539 239.95449148 460.52148438 228.20507812 C460.54293505 214.53038243 460.55129341 200.8557805 460.53903532 187.18107033 C460.53776125 185.72034329 460.53650376 184.25961623 460.53526306 182.79888916 C460.53464596 182.08035637 460.53402886 181.36182358 460.53339306 180.62151706 C460.52995271 175.58047967 460.53573996 170.53950222 460.54518127 165.49847412 C460.55763146 158.70211871 460.54865095 151.90610613 460.52560425 145.1097641 C460.52033556 142.62220502 460.5217992 140.13462073 460.53065491 137.64707184 C460.58618315 120.45871366 460.62206521 105.20308091 448 92 C437.38038569 83.06799881 425.83668785 77.89060556 411.84108257 77.8613348 C411.12788478 77.85849258 410.41468698 77.85565036 409.67987713 77.85272202 C407.28386211 77.84438293 404.88789549 77.84310742 402.49186707 77.84178162 C400.75925927 77.83721573 399.02665258 77.83221567 397.29404718 77.82681805 C392.52808691 77.81323056 387.76213377 77.8058168 382.9961592 77.79939139 C377.85849458 77.79139015 372.72084484 77.77769141 367.58319092 77.76467896 C358.68021802 77.74291231 349.77724363 77.7247685 340.87425804 77.70907402 C328.00197924 77.68637712 315.12971689 77.65823403 302.25745205 77.62875474 C281.37387178 77.58107664 260.49028479 77.53781303 239.60668945 77.49731445 C219.31827267 77.45796065 199.02986186 77.41653469 178.74145508 77.37231445 C177.49121755 77.36959018 176.24098002 77.36686591 174.9528565 77.36405908 C168.68088375 77.35037962 162.40891108 77.33665935 156.13693845 77.32291877 C104.09130402 77.20895055 52.04565761 77.1029532 0 77 C0 51.59 0 26.18 0 0 Z " fill="#FD4A50" transform="translate(265,317)"/>
<path d="M0 0 C7.61501045 5.9701682 12.42592232 13.41461515 14.44140625 22.9140625 C14.53272893 24.57620804 14.57221997 26.24156675 14.57562733 27.90621567 C14.58008517 28.91798079 14.58454301 29.92974592 14.58913594 30.97217059 C14.58895158 32.08187126 14.58876722 33.19157194 14.58857727 34.3348999 C14.59225396 35.51534229 14.59593065 36.69578467 14.59971875 37.91199803 C14.6088376 41.18993508 14.61345357 44.4678427 14.61610806 47.74579024 C14.62001507 51.28117254 14.62959346 54.81654039 14.63832092 58.35191345 C14.65807913 66.89322207 14.66815293 75.43453186 14.67704871 83.97585762 C14.68143462 88.00241223 14.68680083 92.02896553 14.69203758 96.0555191 C14.70905289 109.44989626 14.72354399 122.8442726 14.73078632 136.23865891 C14.7326961 139.71428173 14.73461645 143.18990455 14.73657227 146.66552734 C14.73705601 147.52933727 14.73753975 148.39314719 14.73803815 149.28313318 C14.74632686 163.25597443 14.77164277 177.22872975 14.80415294 191.20153353 C14.83729104 205.56193672 14.85524136 219.92229636 14.85843056 234.28273797 C14.86058995 242.33942252 14.8692539 250.39598194 14.89489174 258.45262909 C14.91669157 265.31896183 14.92460405 272.18513907 14.91492496 279.0515025 C14.91040626 282.54924432 14.91212244 286.04666595 14.9316864 289.54436302 C15.05756808 316.45083231 11.64675905 337.27785779 -7.8984375 357.3125 C-24.16843597 372.76504311 -46.95436611 382.14370726 -69.42163086 382.02758789 C-70.1857129 382.02770843 -70.94979494 382.02782896 -71.73703098 382.02795315 C-74.18669711 382.02721251 -76.63628516 382.01962336 -79.0859375 382.01171875 C-80.60778771 382.0102467 -82.12963844 382.00922761 -83.65148926 382.00866699 C-89.26636519 382.00344464 -94.88123025 381.98948338 -100.49609375 381.9765625 C-113.05671875 381.9559375 -125.61734375 381.9353125 -138.55859375 381.9140625 C-138.55859375 356.5040625 -138.55859375 331.0940625 -138.55859375 304.9140625 C-131.62859375 304.5840625 -124.69859375 304.2540625 -117.55859375 303.9140625 C-104.75240745 301.69760718 -91.71644967 296.05583016 -83.69140625 285.4453125 C-77.46007481 276.24052414 -75.09460382 267.61709243 -75.18678284 256.56704712 C-75.18295827 255.57466644 -75.17913371 254.58228575 -75.17519325 253.55983293 C-75.16596585 250.26060796 -75.17786345 246.96180902 -75.18969727 243.66259766 C-75.18722737 241.28653287 -75.18338704 238.91046916 -75.17828369 236.53440857 C-75.16996331 231.42988066 -75.17073841 226.32546437 -75.1784687 221.22093582 C-75.18909356 213.82773497 -75.18062209 206.43468235 -75.1659069 199.0414937 C-75.14217219 187.02701361 -75.12877546 175.01254928 -75.12475586 162.99804688 C-75.12451099 162.28013023 -75.12426612 161.56221358 -75.12401383 160.82254188 C-75.12146858 152.81526768 -75.12090095 144.80799471 -75.12194824 136.80072021 C-75.12228128 133.89742025 -75.12256667 130.99412029 -75.12280273 128.09082031 C-75.12286552 127.37439246 -75.12292831 126.65796461 -75.122993 125.91982682 C-75.12359896 113.95032665 -75.10867151 101.98089909 -75.08196968 90.01142919 C-75.0648149 81.98794908 -75.06694636 73.96481181 -75.0827924 65.94131875 C-75.08860192 60.94215008 -75.0778266 55.94311609 -75.06254578 50.94397163 C-75.05882941 48.633372 -75.06189892 46.32274948 -75.07241631 44.01217079 C-75.19129372 16.02150637 -75.19129372 16.02150637 -64.87890625 4.16796875 C-47.12198122 -13.08076146 -19.9161873 -13.6253392 0 0 Z " fill="#DE39F7" transform="translate(964.55859375,288.0859375)"/>
<path d="M0 0 C0.77140823 -0.00014603 1.54281647 -0.00029205 2.33760071 -0.0004425 C4.86979045 0.00025031 7.40190525 0.00801298 9.93408203 0.01586914 C11.69670573 0.01773556 13.45932994 0.01915841 15.22195435 0.02015686 C19.84807787 0.02396437 24.47416971 0.0337795 29.10028076 0.04486084 C34.65787094 0.05691739 40.21547176 0.06148562 45.77307129 0.06731415 C54.2043677 0.07699225 62.63559467 0.09616116 71.06689453 0.11352539 C71.06689453 25.52352539 71.06689453 50.93352539 71.06689453 77.11352539 C63.80689453 77.44352539 56.54689453 77.77352539 49.06689453 78.11352539 C39.9129475 80.10672353 32.67541773 82.68082088 25.06689453 88.11352539 C24.43267578 88.5530957 23.79845703 88.99266602 23.14501953 89.44555664 C14.4257394 96.13934028 10.30740806 105.63724765 8.06689453 116.11352539 C7.69472069 119.61490038 7.66565785 123.068748 7.69508362 126.58752441 C7.69125905 127.58146509 7.68743449 128.57540576 7.68349403 129.59946585 C7.67427986 132.89791927 7.68615568 136.19594508 7.69799805 139.49438477 C7.69552772 141.87221957 7.69168695 144.25005329 7.68658447 146.62788391 C7.67826911 151.73294208 7.67903484 156.8378886 7.68676949 161.94294739 C7.69739908 169.33580065 7.68891863 176.7285058 7.67420768 184.12134689 C7.65048149 196.13419978 7.63707739 208.14703692 7.63305664 220.15991211 C7.63281177 220.87752557 7.6325669 221.59513903 7.63231461 222.33449835 C7.62976858 230.34093947 7.62920219 238.34737938 7.63024902 246.3538208 C7.63058208 249.25826009 7.63086746 252.16269937 7.63110352 255.06713867 C7.6311663 255.7838692 7.63122909 256.50059974 7.63129378 257.23904938 C7.63189955 269.2097064 7.61698132 281.18029079 7.59027046 293.15091753 C7.57310927 301.17551257 7.57525221 309.19976484 7.59109318 317.22437286 C7.59689884 322.22130741 7.5861345 327.21810702 7.57084656 332.21501732 C7.56712739 334.52603784 7.57020786 336.83708121 7.58071709 339.14808083 C7.64600892 354.53494597 7.50934514 367.51763196 -3.93310547 379.11352539 C-15.53335317 389.11032588 -28.92118481 392.03471143 -43.93310547 391.11352539 C-56.73353367 389.22546223 -67.93650111 383.42240089 -75.93310547 373.11352539 C-79.56677658 366.6980965 -82.05391113 360.550597 -82.06453323 353.14702034 C-82.06837438 352.14098861 -82.07221552 351.13495688 -82.07617307 350.09843934 C-82.07530658 348.99515632 -82.0744401 347.8918733 -82.07354736 346.75515747 C-82.07651849 345.58147106 -82.07948961 344.40778465 -82.08255076 343.19853199 C-82.08973059 339.9395347 -82.09241006 336.68056953 -82.09314823 333.42156553 C-82.09499981 329.90667347 -82.10254792 326.39179281 -82.10928345 322.87690735 C-82.12286608 315.18843445 -82.12889206 307.49996676 -82.13329411 299.81148386 C-82.136058 295.00717337 -82.14029576 290.20286489 -82.14479828 285.39855576 C-82.15699342 272.08824096 -82.16729058 258.77792776 -82.17067337 245.4676075 C-82.17089294 244.6156302 -82.1711125 243.7636529 -82.17133872 242.88585811 C-82.171557 242.03186697 -82.17177528 241.17787583 -82.17200017 240.29800618 C-82.17244363 238.56756727 -82.17289019 236.83712836 -82.17333984 235.10668945 C-82.17356127 234.24833614 -82.1737827 233.38998282 -82.17401084 232.5056188 C-82.17795386 218.61550808 -82.19539159 204.72545 -82.21869937 190.83535959 C-82.24245423 176.56310664 -82.25487719 162.29088004 -82.25604129 148.01860702 C-82.256956 140.01007783 -82.26265635 132.0016171 -82.2808609 123.99310684 C-82.29631814 117.16918683 -82.30134957 110.34535643 -82.2931228 103.52142222 C-82.28923539 100.04423495 -82.29005129 96.56722781 -82.30418015 93.0900631 C-82.36348111 75.52054723 -82.34247134 59.99252856 -73.93310547 44.11352539 C-73.51416016 43.2949707 -73.09521484 42.47641602 -72.66357422 41.63305664 C-61.02569615 20.53730648 -39.93312666 8.57606839 -17.45654297 2.02368164 C-11.58270808 0.50638283 -6.05365152 -0.03034923 0 0 Z " fill="#FE9C34" transform="translate(81.93310546875,316.886474609375)"/>
<path d="M0 0 C1.86381525 0.00056513 3.72763093 0.00024558 5.59144592 -0.00088501 C10.61747419 -0.00145556 15.64340574 0.0102503 20.66941166 0.02426291 C25.93444889 0.03682014 31.19948868 0.03794469 36.46453857 0.04031372 C46.41958858 0.04651387 56.37459432 0.06290477 66.32962489 0.0830127 C77.66946356 0.10541743 89.00930441 0.11637661 100.34915972 0.12640357 C123.6621596 0.14727236 146.97512028 0.1824197 170.28808594 0.22705078 C170.28808594 0.55705078 170.28808594 0.88705078 170.28808594 1.22705078 C169.39347656 1.38560547 168.49886719 1.54416016 167.57714844 1.70751953 C154.0468518 4.31837635 145.5978156 9.20050636 135.28808594 18.22705078 C134.41796875 18.97470703 133.54785156 19.72236328 132.65136719 20.49267578 C113.1847213 37.54462287 101.63477526 58.37136977 95.28808594 83.22705078 C94.91683594 84.58636719 94.91683594 84.58636719 94.53808594 85.97314453 C90.40085316 103.92988403 93.24165533 123.27729951 98.97558594 140.47705078 C101.52370566 148.1727457 103.54574046 156.47835111 99.72558594 164.10205078 C95.26422758 169.82174099 91.32543305 173.20251504 84.28808594 175.22705078 C79.62979074 175.66560864 74.96521012 175.60816391 70.28808594 175.60205078 C69.28982285 175.60173355 69.28982285 175.60173355 68.27139282 175.60140991 C55.95197984 175.5624624 44.2569897 174.18802472 32.28808594 171.22705078 C31.55412598 171.05044922 30.82016602 170.87384766 30.06396484 170.69189453 C0.85311661 163.46446816 -25.141153 149.0631129 -46.71191406 128.22705078 C-47.63746094 127.36466797 -48.56300781 126.50228516 -49.51660156 125.61376953 C-65.04618651 110.76607854 -80.72047637 89.33027943 -81.71191406 67.22705078 C-81.77636719 65.98181641 -81.84082031 64.73658203 -81.90722656 63.45361328 C-82.51654409 46.7115046 -76.33698385 33.15158863 -65.02441406 20.91455078 C-46.44871345 3.80438868 -24.40246012 -0.10431478 0 0 Z " fill="#2391ED" transform="translate(87.7119140625,810.77294921875)"/>
<path d="M0 0 C7.11255859 -0.07692867 14.22500745 -0.12896296 21.33789062 -0.16479492 C23.75069182 -0.17975429 26.16346644 -0.20012911 28.57617188 -0.22631836 C62.70998197 -0.58718575 91.84609737 7.05560874 117.25 30.8125 C128.09681136 42.23019617 135.92161621 56.70161893 139.4921875 72.0234375 C139.81814612 73.98778336 139.81814612 73.98778336 141 75 C141.10436492 77.47346128 141.14332892 79.91924244 141.14044189 82.39344788 C141.14341302 83.17678338 141.14638414 83.96011888 141.1494453 84.76719183 C141.15817089 87.41259485 141.15964381 90.05795283 141.16113281 92.70336914 C141.16575844 94.59199115 141.17078275 96.48061221 141.17617798 98.36923218 C141.18933279 103.51623982 141.19575348 108.6632344 141.20018864 113.81025624 C141.20311576 117.02500476 141.20721997 120.23974967 141.21169281 123.45449638 C141.22537882 133.5095916 141.2350388 143.56467862 141.2388947 153.61978251 C141.24337162 165.23151794 141.26089788 176.84313543 141.2898953 188.454835 C141.31151821 197.4247598 141.32159939 206.39465144 141.32293582 215.36460203 C141.32398385 220.72375129 141.32989075 226.08278985 141.34775543 231.4419117 C141.36424551 236.48731771 141.366387 241.53252996 141.35761642 246.57795334 C141.35684643 248.42742749 141.36118386 250.27691208 141.37107468 252.12635994 C141.38381178 254.657025 141.37790787 257.18700574 141.36749268 259.71766663 C141.37957728 260.80811888 141.37957728 260.80811888 141.39190602 261.92060047 C141.34185055 267.14356088 140.03423305 271.22315966 138 276 C137.56300781 277.20140625 137.12601563 278.4028125 136.67578125 279.640625 C131.77318801 292.62055668 124.76144266 303.07477475 115 313 C114.25234375 313.76054688 113.5046875 314.52109375 112.734375 315.3046875 C82.22880702 344.49710189 40.33307337 343.39567434 1 343 C1 342.34 1 341.68 1 341 C1.94359375 340.91363281 2.8871875 340.82726562 3.859375 340.73828125 C18.46795683 339.13955091 31.05943781 334.5544544 41.32421875 323.49609375 C52.46807725 309.34483535 51.57864752 293.83395233 51.51757812 276.6796875 C51.52300465 274.11761071 51.53013027 271.55553704 51.53881836 268.99346924 C51.55510833 262.78176203 51.55280168 256.57030852 51.5411678 250.35859823 C51.5321002 245.30608634 51.53092378 240.25362855 51.53526306 235.20111084 C51.53587599 234.47948096 51.53648893 233.75785108 51.53712043 233.01435363 C51.53839945 231.54795407 51.53969631 230.08155452 51.5410108 228.61515498 C51.55239182 214.8944503 51.53934194 201.17385286 51.51780933 187.45316577 C51.49994058 175.70374956 51.50304539 163.95449148 51.52148438 152.20507812 C51.54293505 138.53038243 51.55129341 124.8557805 51.53903532 111.18107033 C51.53776125 109.72034329 51.53650376 108.25961623 51.53526306 106.79888916 C51.53464596 106.08035637 51.53402886 105.36182358 51.53339306 104.62151706 C51.52995271 99.58047967 51.53573996 94.53950222 51.54518127 89.49847412 C51.55763146 82.70211871 51.54865095 75.90610613 51.52560425 69.1097641 C51.52033556 66.62220502 51.5217992 64.13462073 51.53065491 61.64707184 C51.58618315 44.45871366 51.62206521 29.20308091 39 16 C27.14440651 6.02843494 15.1507974 2.55392794 0 1 C0 0.67 0 0.34 0 0 Z " fill="#DE1F53" transform="translate(674,393)"/>
<path d="M0 0 C6.15814374 4.66663003 12.0123964 9.66179919 17.72265625 14.86328125 C18.84220703 15.87455078 18.84220703 15.87455078 19.984375 16.90625 C36.30006097 32.42766323 52.1298734 55.28727271 52.92578125 78.3515625 C53.21826938 96.24484593 48.85848077 109.14907013 36.234375 122.48046875 C18.92870516 138.89797824 -0.3586304 143.51475512 -23.42163086 143.31738281 C-25.29574051 143.3162518 -27.16985194 143.31689314 -29.04396057 143.31915283 C-34.08439301 143.320291 -39.12443738 143.29692855 -44.16478038 143.268857 C-49.44980398 143.24369222 -54.73483845 143.24148954 -60.01991272 143.23675537 C-70.00680088 143.22436962 -79.99351192 143.19160807 -89.98032242 143.15135741 C-101.35890513 143.10650207 -112.73749672 143.08461818 -124.11614597 143.06457567 C-147.50330973 143.02287115 -170.89031677 142.95260544 -194.27734375 142.86328125 C-194.27734375 142.53328125 -194.27734375 142.20328125 -194.27734375 141.86328125 C-193.04371094 141.53457031 -193.04371094 141.53457031 -191.78515625 141.19921875 C-167.74421434 134.37003664 -148.46693893 114.33020521 -136.39550781 92.94091797 C-127.31988913 76.07770509 -121.87227409 58.01529412 -121.90234375 38.80078125 C-121.90395508 37.71313477 -121.90556641 36.62548828 -121.90722656 35.50488281 C-122.09038646 23.3049968 -124.74337146 12.45338254 -128.52734375 0.92578125 C-130.5660122 -5.5232337 -131.96362252 -11.93896097 -129.359375 -18.421875 C-125.89131839 -24.42643903 -121.02778158 -29.1115874 -114.27734375 -31.13671875 C-76.95671532 -38.43047923 -29.82149263 -21.82948593 0 0 Z " fill="#2686EB" transform="translate(920.27734375,32.13671875)"/>
<path d="M0 0 C1.64135674 0.00424484 1.64135674 0.00424484 3.31587219 0.00857544 C6.76929223 0.01966216 10.22244121 0.04474471 13.67578125 0.0703125 C16.03450143 0.08035719 18.39322573 0.08948042 20.75195312 0.09765625 C26.49748642 0.11956363 32.24286446 0.15292438 37.98828125 0.1953125 C37.98828125 0.5253125 37.98828125 0.8553125 37.98828125 1.1953125 C37.14007813 1.33066406 36.291875 1.46601563 35.41796875 1.60546875 C20.77278209 4.29310191 7.56083996 10.11825942 -1.32421875 22.5703125 C-7.22726086 31.98630631 -8.16179771 41.75114969 -8.15216064 52.63076782 C-8.15513177 53.68098409 -8.15810289 54.73120036 -8.16116405 55.81324136 C-8.16983496 59.33204529 -8.17135794 62.85081514 -8.17285156 66.36962891 C-8.17748089 68.89288404 -8.18250571 71.41613847 -8.18789673 73.93939209 C-8.20101214 80.79499605 -8.20750109 87.65058881 -8.21190739 94.50620317 C-8.21467413 98.79089385 -8.21891229 103.07558229 -8.22341156 107.36027145 C-8.23560147 119.23465394 -8.24590107 131.10903463 -8.24928665 142.98342323 C-8.24950622 143.74283747 -8.24972578 144.5022517 -8.249952 145.28467848 C-8.25017028 146.04586095 -8.25038856 146.80704342 -8.25061345 147.59129202 C-8.25105691 149.13361526 -8.25150347 150.67593849 -8.25195312 152.21826172 C-8.25217455 152.9832996 -8.25239598 153.74833747 -8.25262412 154.53655832 C-8.25656958 166.92442852 -8.27401711 179.31223981 -8.29731265 191.70008726 C-8.32106341 204.43331723 -8.33349021 217.16651768 -8.33465457 229.89977014 C-8.33556928 237.04301119 -8.34127 244.18617547 -8.35947418 251.32939529 C-8.37654592 258.05171497 -8.37810003 264.77386453 -8.36933517 271.49620819 C-8.36856592 273.95838943 -8.37289272 276.42057856 -8.38279343 278.88274002 C-8.39555312 282.25465005 -8.38961391 285.62604817 -8.37921143 288.99795532 C-8.38726783 289.96277317 -8.39532423 290.92759101 -8.40362477 291.92164576 C-8.31058945 304.89478116 -4.70110507 316.20848605 4.11328125 325.8828125 C15.28001378 336.33309537 28.31148386 339.42073529 42.98828125 341.1953125 C42.98828125 341.5253125 42.98828125 341.8553125 42.98828125 342.1953125 C36.17886745 342.27237515 29.369569 342.32432938 22.55981445 342.36010742 C20.25085244 342.37504748 17.94191806 342.39540692 15.63305664 342.42163086 C-17.91598616 342.7927003 -48.62571683 335.47039897 -73.32421875 311.4453125 C-92.97685107 291.56652791 -98.33346072 267.06887391 -98.28637695 240.01074219 C-98.29073572 238.33346838 -98.29592269 236.65619656 -98.30186462 234.97892761 C-98.31514218 230.4642064 -98.31584585 225.94956947 -98.31330132 221.43483257 C-98.31222371 217.64569448 -98.31713512 213.85657289 -98.32190675 210.06743836 C-98.33296353 201.11639791 -98.33346129 192.16539943 -98.32739258 183.21435547 C-98.32135867 174.02692747 -98.33365786 164.83965285 -98.35496265 155.65225101 C-98.37266519 147.72223151 -98.37856637 139.79226045 -98.3753249 131.86222196 C-98.3735253 127.14458362 -98.37601408 122.42705467 -98.39003944 117.70943451 C-98.40275472 113.26707428 -98.4005465 108.82495039 -98.38762856 104.38259315 C-98.38529252 102.7679085 -98.38788821 101.15320648 -98.39625168 99.53854179 C-98.52938416 71.79893442 -91.70347059 49.62735577 -72.01171875 29.1953125 C-71.3053125 28.4425 -70.59890625 27.6896875 -69.87109375 26.9140625 C-68.01171875 25.1953125 -68.01171875 25.1953125 -66.01171875 25.1953125 C-66.01171875 24.5353125 -66.01171875 23.8753125 -66.01171875 23.1953125 C-63.85838731 21.52457165 -61.72107058 20.00325799 -59.44921875 18.5078125 C-58.77391113 18.06228027 -58.09860352 17.61674805 -57.40283203 17.15771484 C-39.99067442 5.93852031 -20.75896919 -0.20665721 0 0 Z " fill="#6E1BB1" transform="translate(262.01171875,251.8046875)"/>
<path d="M0 0 C41.79482788 0.09066123 80.36554262 20.44423677 110.125 48.8125 C121.23242574 60.33995445 136.57573833 78.20896298 138.41796875 94.7578125 C137.45508776 99.9231741 132.6296681 103.49170616 129 107 C128.43796875 107.60714844 127.8759375 108.21429688 127.296875 108.83984375 C107.78382438 129.7818804 78.45540622 144.3463704 52 154 C50.81760742 154.44786865 50.81760742 154.44786865 49.61132812 154.90478516 C37.95094279 159.30018513 26.10159296 162.27782143 13.9375 164.875 C13.23485016 165.02647491 12.53220032 165.17794983 11.80825806 165.33401489 C3.23477101 167.16483969 -5.23312986 168.53765826 -14 169 C-10.45943467 164.69390703 -6.7552533 160.75526668 -2.75 156.875 C3.17683244 151.05728756 8.14603524 144.72586101 13 138 C13.69996094 137.03320312 14.39992188 136.06640625 15.12109375 135.0703125 C20.63819964 127.13342333 24.91722012 118.73369263 29 110 C29.55945313 108.81019531 30.11890625 107.62039062 30.6953125 106.39453125 C39.14017831 87.61637487 43.26111773 66.12947331 36.32421875 46.09765625 C29.01863506 29.00819351 16.87873762 13.51622646 1.328125 3.0859375 C0.88984375 2.72757812 0.4515625 2.36921875 0 2 C0 1.34 0 0.68 0 0 Z " fill="#2CA1F0" transform="translate(832,2)"/>
<path d="M0 0 C0.77140823 -0.00014603 1.54281647 -0.00029205 2.33760071 -0.0004425 C4.86979045 0.00025031 7.40190525 0.00801298 9.93408203 0.01586914 C11.69670573 0.01773556 13.45932994 0.01915841 15.22195435 0.02015686 C19.84807787 0.02396437 24.47416971 0.0337795 29.10028076 0.04486084 C34.65787094 0.05691739 40.21547176 0.06148562 45.77307129 0.06731415 C54.2043677 0.07699225 62.63559467 0.09616116 71.06689453 0.11352539 C71.06689453 25.52352539 71.06689453 50.93352539 71.06689453 77.11352539 C64.96060547 77.0787207 58.85431641 77.04391602 52.56298828 77.00805664 C48.66649419 76.99270619 44.77003801 76.97826278 40.87353516 76.96704102 C34.70524231 76.94919162 28.53708459 76.92820517 22.36889648 76.88720703 C17.38921197 76.85432024 12.40967261 76.83661132 7.42988777 76.82889366 C5.5415322 76.82340227 3.65318348 76.81268102 1.76489067 76.79633522 C-14.24481101 76.66341387 -28.27459195 78.04747398 -42.93310547 85.11352539 C-43.84576172 85.5324707 -44.75841797 85.95141602 -45.69873047 86.38305664 C-57.18799804 92.07845071 -66.4058799 101.12398743 -72.93310547 112.11352539 C-73.63886719 113.29688477 -73.63886719 113.29688477 -74.35888672 114.50415039 C-77.94131279 121.05608007 -79.52627689 127.816317 -80.93310547 135.11352539 C-81.26310547 135.11352539 -81.59310547 135.11352539 -81.93310547 135.11352539 C-82.00312156 126.75001623 -82.05617526 118.38663286 -82.08854198 110.02290154 C-82.10408921 106.13780112 -82.12512275 102.25290361 -82.15942383 98.36791992 C-82.19241376 94.6071999 -82.21004035 90.84667299 -82.2177372 87.08581924 C-82.22321062 85.662741 -82.2338948 84.23967135 -82.25029564 82.81667709 C-82.40350504 68.95146468 -80.47222457 56.46103108 -73.93310547 44.11352539 C-73.51416016 43.2949707 -73.09521484 42.47641602 -72.66357422 41.63305664 C-61.02569615 20.53730648 -39.93312666 8.57606839 -17.45654297 2.02368164 C-11.58270808 0.50638283 -6.05365152 -0.03034923 0 0 Z " fill="#FE8C22" transform="translate(81.93310546875,316.886474609375)"/>
<path d="M0 0 C30.3930545 -0.28017991 61.28251436 2.38323258 90 13 C89.33402293 16.96690688 87.37746017 19.90236577 85.3125 23.3125 C71.36923109 47.12128937 66.23559953 75.09154489 72 102.1953125 C73.07275847 106.27682323 74.35358226 110.24872148 75.6875 114.25 C78.07904993 121.4728312 79.90767996 128.87144642 77.16015625 136.2578125 C75.78124577 138.82830977 74.65093599 140.67453201 72 142 C72.33 140.68 72.66 139.36 73 138 C72.17886719 137.90976562 71.35773438 137.81953125 70.51171875 137.7265625 C66.25272321 136.84539101 62.71267364 135.25678562 58.8125 133.375 C58.06000977 133.0145459 57.30751953 132.6540918 56.53222656 132.28271484 C50.37679159 129.28151155 44.59184188 125.96602002 39 122 C37.98808594 121.28457031 36.97617188 120.56914063 35.93359375 119.83203125 C23.4902058 110.7707988 12.41120948 99.93272819 4 87 C3.47148438 86.22785156 2.94296875 85.45570313 2.3984375 84.66015625 C-8.65505131 67.62644657 -14.14384684 44.9706745 -9.91723633 25.01342773 C-7.80037763 16.12908491 -4.14543499 8.1045583 0 0 Z " fill="#47C0F6" transform="translate(111,837)"/>
<path d="M0 0 C8.07174425 6.81881678 14.27170067 15.16617015 15.46191406 25.95214844 C15.96840141 34.92846624 15.78778123 42.97773852 11.2421875 50.9609375 C10.8296875 51.72664062 10.4171875 52.49234375 9.9921875 53.28125 C3.76854578 63.7129222 -6.83353053 70.78746849 -18.41796875 73.96484375 C-33.96069041 77.5357276 -48.88259805 76.06201781 -62.9453125 68.2734375 C-73.19020056 61.70155593 -78.66312165 53.77134775 -83.0703125 42.6484375 C-85.14877788 31.50030499 -84.13168907 21.0143208 -78.0703125 11.3359375 C-69.23609976 -0.90267917 -58.05490623 -7.94680854 -43.09375 -10.60546875 C-27.68163601 -12.60868263 -12.59599068 -9.31318291 0 0 Z " fill="#2B9CEE" transform="translate(677.7578125,466.0390625)"/>
<path d="M0 0 C8.07174425 6.81881678 14.27170067 15.16617015 15.46191406 25.95214844 C15.96840141 34.92846624 15.78778123 42.97773852 11.2421875 50.9609375 C10.8296875 51.72664062 10.4171875 52.49234375 9.9921875 53.28125 C3.76854578 63.7129222 -6.83353053 70.78746849 -18.41796875 73.96484375 C-33.96069041 77.5357276 -48.88259805 76.06201781 -62.9453125 68.2734375 C-73.19020056 61.70155593 -78.66312165 53.77134775 -83.0703125 42.6484375 C-85.14877788 31.50030499 -84.13168907 21.0143208 -78.0703125 11.3359375 C-69.23609976 -0.90267917 -58.05490623 -7.94680854 -43.09375 -10.60546875 C-27.68163601 -12.60868263 -12.59599068 -9.31318291 0 0 Z " fill="#2B9CEE" transform="translate(520.7578125,466.0390625)"/>
<path d="M0 0 C8.06839067 6.81598376 14.2627134 15.15655366 15.46191406 25.93603516 C16.22022551 39.25109198 14.28350741 49.35440764 5.375 59.7421875 C2.25629999 62.98654941 -0.93745649 65.58919232 -4.7578125 67.9609375 C-5.47195313 68.41210938 -6.18609375 68.86328125 -6.921875 69.328125 C-19.56689736 76.47531155 -35.06550161 77.45110354 -49.01171875 74.203125 C-60.82744236 70.61162791 -71.68111389 64.05889089 -78.359375 53.40625 C-84.025407 42.50493697 -85.75422358 31.56891564 -82.1328125 19.6484375 C-80.1318927 14.31265137 -77.54507193 10.18943104 -73.7578125 5.9609375 C-73.26796875 5.36796875 -72.778125 4.775 -72.2734375 4.1640625 C-54.15334282 -16.10891472 -20.74972539 -15.34186495 0 0 Z " fill="#2B9CEE" transform="translate(363.7578125,466.0390625)"/>
<path d="M0 0 C1.86381525 0.00056513 3.72763093 0.00024558 5.59144592 -0.00088501 C10.61747419 -0.00145556 15.64340574 0.0102503 20.66941166 0.02426291 C25.93444889 0.03682014 31.19948868 0.03794469 36.46453857 0.04031372 C46.41958858 0.04651387 56.37459432 0.06290477 66.32962489 0.0830127 C77.66946356 0.10541743 89.00930441 0.11637661 100.34915972 0.12640357 C123.6621596 0.14727236 146.97512028 0.1824197 170.28808594 0.22705078 C170.28808594 0.55705078 170.28808594 0.88705078 170.28808594 1.22705078 C169.39347656 1.38560547 168.49886719 1.54416016 167.57714844 1.70751953 C154.0468518 4.31837635 145.5978156 9.20050636 135.28808594 18.22705078 C134.41796875 18.97470703 133.54785156 19.72236328 132.65136719 20.49267578 C127.76121564 24.77623885 123.3052016 29.2453561 119.07714844 34.18408203 C117.23055763 36.29274359 115.28927741 38.26553051 113.28808594 40.22705078 C112.43730469 39.91251953 111.58652344 39.59798828 110.70996094 39.27392578 C68.56690363 24.3893566 15.470722 20.13381134 -27.71191406 32.22705078 C-28.35612305 32.40606934 -29.00033203 32.58508789 -29.6640625 32.76953125 C-49.38438902 38.40606517 -69.50574519 49.55578449 -80.71191406 67.22705078 C-81.04191406 67.22705078 -81.37191406 67.22705078 -81.71191406 67.22705078 C-82.52718481 49.38168 -77.97939695 36.85493641 -66.84082031 22.87939453 C-49.20820243 3.80583153 -24.64231036 -0.10534008 0 0 Z " fill="#2267A2" transform="translate(87.7119140625,810.77294921875)"/>
<path d="M0 0 C6.19326761 9.28990141 5.08742258 24.33861367 3.5703125 35.02734375 C-0.70595975 51.31413373 -13.28494703 64.08079136 -27 73 C-30.57347391 75.03901277 -34.15127811 76.55961404 -38 78 C-38.94202774 78.35471375 -39.88405548 78.70942749 -40.85462952 79.07489014 C-53.95093185 83.24888028 -67.32491104 82.50220221 -80.93359375 82.390625 C-83.62500063 82.38090561 -86.31640686 82.37726706 -89.00782776 82.37347412 C-95.32921376 82.36113097 -101.65031708 82.32842932 -107.97157961 82.28807616 C-115.17852162 82.24308556 -122.38547843 82.22130344 -129.59252632 82.20129442 C-144.39516092 82.15968688 -159.19757548 82.08950697 -174 82 C-174 81.67 -174 81.34 -174 81 C-172.04126953 80.83177734 -172.04126953 80.83177734 -170.04296875 80.66015625 C-132.01327027 76.95225219 -91.62722174 68.8110756 -58 50 C-56.71734505 49.33241163 -55.43209964 48.66978074 -54.14453125 48.01171875 C-35.67257355 38.5208827 -11.24636181 24.00046178 0 6 C0.28238293 2.81941422 0.28238293 2.81941422 0 0 Z " fill="#206AA5" transform="translate(969,93)"/>
</svg>
